<?xml version="1.0" encoding="UTF-8"?>
<svg width="51px" height="47px" viewBox="0 0 51 47" version="1.1" xmlns="http://www.w3.org/2000/svg" xmlns:xlink="http://www.w3.org/1999/xlink">
    <!-- Generator: Sketch 49.3 (51167) - http://www.bohemiancoding.com/sketch -->
    <title>Fill 1</title>
    <desc>Created with Sketch.</desc>
    <defs>
        <linearGradient x1="20.648329%" y1="20.8030701%" x2="78.1255425%" y2="84.0110779%" id="linearGradient-1">
            <stop stop-color="#DA22FF" offset="0%"></stop>
            <stop stop-color="#9733EE" offset="100%"></stop>
        </linearGradient>
    </defs>
    <g id="Symbols" stroke="none" stroke-width="1" fill="none" fill-rule="evenodd">
        <g id="LeftNav" transform="translate(-91.000000, -953.000000)" fill="url(#linearGradient-1)">
            <path d="M142,969.176697 C142,978.096602 134.752502,985.353393 125.844019,985.353393 C123.30535,985.353393 121.240992,983.285786 121.240992,980.744464 L121.240992,973.298669 C121.240992,972.748511 120.794335,972.30068 120.244881,972.30068 C119.694827,972.30068 119.24817,972.748511 119.24817,973.298669 L119.24817,986.460933 C119.24817,989.002856 117.183811,991.070463 114.645143,991.070463 C112.106475,991.070463 110.042116,989.002856 110.042116,986.460933 L110.042116,976.892153 C110.042116,976.341995 109.59546,975.894766 109.046006,975.894766 C108.496552,975.894766 108.049295,976.341995 108.049295,976.892153 L108.049295,979.918625 C108.049295,982.459946 105.984936,984.526952 103.446869,984.526952 L99.1606492,984.526952 C98.1645391,984.526952 97.3571908,983.718569 97.3571908,982.721181 C97.3571908,981.724396 98.1645391,980.915411 99.1606492,980.915411 L103.446869,980.915411 C103.995721,980.915411 104.442378,980.468181 104.442378,979.918625 L104.442378,976.892153 C104.442378,974.350832 106.507338,972.283224 109.046006,972.283224 C111.584073,972.283224 113.649033,974.350832 113.649033,976.892153 L113.649033,986.460933 C113.649033,987.011091 114.095689,987.458922 114.645143,987.458922 C115.194597,987.458922 115.641253,987.011091 115.641253,986.460933 L115.641253,973.298669 C115.641253,970.756746 117.706213,968.689138 120.244881,968.689138 C122.782948,968.689138 124.847908,970.756746 124.847908,973.298669 L124.847908,980.744464 C124.847908,981.294622 125.294565,981.741852 125.844019,981.741852 C132.763888,981.741852 138.393083,976.105439 138.393083,969.176697 C138.393083,962.247954 132.763888,956.611542 125.844019,956.611542 L94.6069168,956.611542 L94.6069168,998.194229 C94.6069168,999.191617 93.7995686,1000 92.8034584,1000 C91.8073482,1000 91,999.191617 91,998.194229 L91,954.805771 C91,953.808383 91.8073482,953 92.8034584,953 L125.844019,953 C134.752502,953 142,960.256791 142,969.176697" id="Fill-1"></path>
        </g>
    </g>
</svg>